<svg width="552" height="64" viewBox="0 0 552 64" fill="none" xmlns="http://www.w3.org/2000/svg">
<path d="M8.22896 37.0355H17.4936L8.62158 28.0964C7.29854 26.7013 6.56938 24.8743 6.56938 22.9509C6.56938 21.0276 7.33813 19.0877 8.73706 17.6792C10.136 16.2707 11.9935 15.4968 13.9731 15.4968C15.8868 15.4968 17.6981 16.2309 19.0839 17.5596L26.4084 24.9341L33.733 17.5596C35.1188 16.2276 36.9301 15.4968 38.8437 15.4968C40.8201 15.4968 42.6809 16.2707 44.0798 17.6792C45.4788 19.0877 46.2475 20.9578 46.2475 22.9509C46.2475 24.4956 45.779 25.9738 44.9113 27.2195H52.1435C52.5757 25.8542 52.8034 24.4192 52.8034 22.9509C52.8034 19.1973 51.3516 15.6662 48.7154 13.012C46.0825 10.3579 42.5753 8.8963 38.847 8.8963C35.221 8.8963 31.7864 10.2915 29.1733 12.8227L26.4117 15.5997L23.6964 12.8659L23.6502 12.8227C21.0371 10.2915 17.5991 8.8963 13.9731 8.8963C10.2449 8.8963 6.74095 10.3579 4.10476 13.012C1.46857 15.6662 0.0168457 19.1973 0.0168457 22.9509C0.0168457 26.6016 1.40258 30.0596 3.91669 32.6905L8.22896 37.0355Z" fill="#005B8F"/>
<path d="M40.8777 31.4389L26.4034 46.0151L21.6787 41.2549H12.4141L26.4034 55.3494L48.8588 32.7344L48.9017 32.6912C49.2811 32.2926 49.6342 31.8741 49.9608 31.4389H40.8777Z" fill="#62BBE4"/>
<path d="M96.0447 54.4947C82.7173 54.4947 73.3757 45.0908 73.3757 31.8257C73.3757 18.5606 82.7173 9.15671 96.0447 9.15671C102.272 9.15671 107.815 11.461 112.112 15.8827L107.94 19.6193C104.888 16.4432 100.902 14.824 96.2315 14.824C86.3294 14.824 79.4789 21.7368 79.4789 31.8257C79.4789 41.9147 86.3294 48.8275 96.2315 48.8275C100.778 48.8275 105.199 47.0837 108.376 43.9698L112.361 48.0179C108.064 52.2528 102.522 54.4947 96.0447 54.4947ZM143.15 22.8578H148.257V53.6229H143.15L143.088 49.0766C140.659 52.315 136.424 54.3079 131.38 54.3079C122.35 54.3079 115.997 47.7065 115.997 38.2403C115.997 28.7741 122.35 22.1727 131.38 22.1727C136.424 22.1727 140.659 24.1656 143.088 27.404L143.15 22.8578ZM132.127 48.952C138.23 48.952 142.465 44.5303 142.465 38.2403C142.465 31.9503 138.23 27.5286 132.127 27.5286C126.086 27.5286 121.789 31.9503 121.789 38.2403C121.789 44.5303 126.086 48.952 132.127 48.952ZM172.164 22.2973C175.091 22.2973 177.894 23.2314 179.7 24.7261L177.084 29.5837C175.341 28.4627 173.721 27.9645 171.853 27.9645C166.559 27.9645 163.072 32.1371 163.072 38.4894V53.6229H157.28V22.8578H162.449L162.511 28.0268C164.94 24.1656 168.054 22.2973 172.164 22.2973ZM196.95 22.235C207.538 22.235 213.516 29.2101 212.644 40.5446H187.173C187.733 45.8382 191.781 49.0766 197.698 49.0766C201.434 49.0766 205.233 47.6442 207.039 45.4645L210.776 49.0143C207.849 52.3773 202.867 54.4325 197.573 54.4325C187.671 54.4325 181.194 48.0179 181.194 38.2403C181.194 28.7741 187.546 22.235 196.95 22.235ZM197.137 27.404C191.719 27.404 188.169 30.4556 187.235 35.6247H207.164C206.666 30.6425 202.867 27.404 197.137 27.404ZM239.876 10.0286C249.28 10.0286 255.321 16.0695 255.321 24.9752C255.321 33.9432 249.28 39.9841 239.876 39.9841H226.05V53.6229H220.01V10.0286H239.876ZM239.565 34.3791C245.543 34.3791 249.342 30.6425 249.342 24.9752C249.342 19.3079 245.543 15.6336 239.565 15.6336H226.05V34.3791H239.565ZM285.951 22.8578H291.058V53.6229H285.951L285.888 49.0766C283.46 52.315 279.225 54.3079 274.18 54.3079C265.15 54.3079 258.798 47.7065 258.798 38.2403C258.798 28.7741 265.15 22.1727 274.18 22.1727C279.225 22.1727 283.46 24.1656 285.888 27.404L285.951 22.8578ZM274.928 48.952C281.031 48.952 285.266 44.5303 285.266 38.2403C285.266 31.9503 281.031 27.5286 274.928 27.5286C268.887 27.5286 264.59 31.9503 264.59 38.2403C264.59 44.5303 268.887 48.952 274.928 48.952ZM318.141 47.8311L319.822 52.6264C317.58 53.6229 315.588 54.0588 313.283 54.0588C306.806 54.0588 303.568 50.3222 303.568 43.4093V27.9022H297.527V22.8578H303.568V14.5749L309.298 13.9521V22.8578H318.639V27.9022H309.298V43.4093C309.298 46.8346 310.605 48.8275 313.968 48.8275C315.276 48.8275 316.833 48.3916 318.141 47.8311ZM341.512 22.2973C349.608 22.2973 354.715 27.84 354.715 36.5588V53.6229H348.923V36.9325C348.923 31.0161 345.871 27.6531 340.64 27.6531C335.035 27.6531 331.112 31.7012 331.112 37.2439V53.6229H325.32V10.0286H331.112V26.8435C333.665 23.8542 337.215 22.2973 341.512 22.2973Z" fill="#005B8F"/>
<path d="M379.712 54.3702C376.265 54.3702 372.944 53.7474 369.747 52.5019C366.55 51.2563 363.872 49.5333 361.713 47.3328L364.454 43.783C366.073 45.6098 368.273 47.0837 371.055 48.2047C373.878 49.3257 376.764 49.8862 379.712 49.8862C383.531 49.8862 386.562 49.1804 388.804 47.7688C391.046 46.3156 392.167 44.385 392.167 41.977C392.167 40.4823 391.752 39.2368 390.921 38.2403C390.091 37.2024 388.742 36.3305 386.873 35.6247C385.005 34.9188 382.452 34.2753 379.213 33.6941C373.318 32.7391 369.083 31.286 366.509 29.3346C363.976 27.3833 362.71 24.6223 362.71 21.0517C362.71 18.7682 363.395 16.7338 364.765 14.9485C366.177 13.1217 368.128 11.7101 370.619 10.7136C373.11 9.7172 375.975 9.21898 379.213 9.21898C382.244 9.21898 385.109 9.73796 387.808 10.7759C390.548 11.7724 392.956 13.2047 395.032 15.0731L392.416 18.4983C390.714 16.9206 388.721 15.7166 386.437 14.8862C384.154 14.0144 381.767 13.5784 379.276 13.5784C375.747 13.5784 372.902 14.2842 370.744 15.6958C368.585 17.066 367.505 18.872 367.505 21.114C367.505 23.2729 368.419 24.9752 370.245 26.2208C372.114 27.4248 375.29 28.442 379.774 29.2723C384.05 30.0197 387.434 30.9123 389.925 31.9503C392.416 32.9882 394.222 34.2961 395.343 35.8738C396.464 37.4515 397.025 39.4443 397.025 41.8524C397.025 44.3435 396.319 46.544 394.907 48.4538C393.496 50.3222 391.482 51.7753 388.866 52.8133C386.251 53.8512 383.199 54.3702 379.712 54.3702ZM422.295 52.5641C420.011 53.6021 417.852 54.1211 415.818 54.1211C409.673 54.1211 406.601 50.6751 406.601 43.783V26.9058H400.373V22.8578H406.601V14.2635L411.209 13.8275V22.8578H420.987V26.9058H411.209V43.783C411.209 45.7759 411.583 47.3121 412.33 48.3916C413.078 49.4295 414.385 49.9485 416.254 49.9485C417.665 49.9485 419.202 49.5541 420.862 48.7652L422.295 52.5641ZM456.008 22.8578V53.6229H451.898L451.836 48.6407C450.549 50.3844 448.929 51.7338 446.978 52.6887C445.068 53.6436 442.951 54.1211 440.626 54.1211C436.64 54.1211 433.485 52.8755 431.16 50.3844C428.835 47.8933 427.672 44.4888 427.672 40.1709V22.8578H432.281V39.9218C432.281 43.0772 433.049 45.5268 434.585 47.2706C436.163 49.0143 438.363 49.8862 441.186 49.8862C443.179 49.8862 444.944 49.4295 446.48 48.5161C448.058 47.6027 449.262 46.3572 450.092 44.7795C450.964 43.2018 451.4 41.4372 451.4 39.4859V22.8578H456.008ZM495.342 10.0286V53.6229H491.169L491.107 48.267C489.945 50.1353 488.284 51.6092 486.125 52.6887C483.966 53.7267 481.537 54.2456 478.838 54.2456C475.891 54.2456 473.254 53.5813 470.929 52.2528C468.604 50.9242 466.777 49.0558 465.449 46.6478C464.12 44.1982 463.456 41.3957 463.456 38.2403C463.456 35.0849 464.12 32.3032 465.449 29.8951C466.777 27.4455 468.604 25.5565 470.929 24.2279C473.254 22.8993 475.891 22.235 478.838 22.235C481.413 22.235 483.717 22.7125 485.751 23.6674C487.827 24.6223 489.488 25.9509 490.733 27.6531V10.0286H495.342ZM479.399 49.9485C481.599 49.9485 483.551 49.471 485.253 48.5161C486.955 47.5197 488.284 46.1288 489.239 44.3435C490.235 42.5582 490.733 40.5238 490.733 38.2403C490.733 35.9568 490.235 33.9224 489.239 32.1371C488.284 30.3518 486.955 28.9817 485.253 28.0268C483.551 27.0304 481.599 26.5321 479.399 26.5321C477.198 26.5321 475.247 27.0304 473.545 28.0268C471.843 28.9817 470.493 30.3518 469.497 32.1371C468.542 33.9224 468.064 35.9568 468.064 38.2403C468.064 40.5238 468.542 42.5582 469.497 44.3435C470.493 46.1288 471.843 47.5197 473.545 48.5161C475.247 49.471 477.198 49.9485 479.399 49.9485ZM507.104 16.8168C506.149 16.8168 505.36 16.5262 504.737 15.945C504.114 15.3222 503.803 14.5333 503.803 13.5784C503.803 12.6235 504.114 11.8346 504.737 11.2119C505.36 10.5891 506.149 10.2777 507.104 10.2777C508.1 10.2777 508.91 10.5891 509.532 11.2119C510.155 11.8346 510.467 12.6235 510.467 13.5784C510.467 14.5333 510.155 15.3222 509.532 15.945C508.91 16.5262 508.1 16.8168 507.104 16.8168ZM504.799 22.8578H509.408V53.6229H504.799V22.8578ZM532.861 54.2456C529.705 54.2456 526.903 53.5606 524.453 52.1905C522.045 50.7789 520.156 48.869 518.786 46.4609C517.457 44.0114 516.793 41.2712 516.793 38.2403C516.793 35.2095 517.457 32.49 518.786 30.082C520.156 27.6324 522.045 25.7225 524.453 24.3524C526.903 22.9408 529.705 22.235 532.861 22.235C536.016 22.235 538.798 22.9408 541.206 24.3524C543.655 25.7225 545.545 27.6324 546.873 30.082C548.202 32.49 548.866 35.2095 548.866 38.2403C548.866 41.2712 548.202 44.0114 546.873 46.4609C545.545 48.869 543.655 50.7789 541.206 52.1905C538.798 53.5606 536.016 54.2456 532.861 54.2456ZM532.861 49.9485C535.061 49.9485 537.033 49.4295 538.777 48.3916C540.521 47.3536 541.87 45.942 542.825 44.1567C543.78 42.3714 544.257 40.3993 544.257 38.2403C544.257 36.0814 543.78 34.1092 542.825 32.3239C541.87 30.5387 540.521 29.127 538.777 28.0891C537.033 27.0511 535.061 26.5321 532.861 26.5321C530.619 26.5321 528.626 27.0511 526.882 28.0891C525.138 29.127 523.789 30.5387 522.834 32.3239C521.879 34.1092 521.402 36.0814 521.402 38.2403C521.402 40.3993 521.879 42.3714 522.834 44.1567C523.789 45.942 525.138 47.3536 526.882 48.3916C528.626 49.4295 530.619 49.9485 532.861 49.9485Z" fill="#62BBE4"/>
</svg>
