<svg width="266" height="118" viewBox="0 0 266 118" fill="none" xmlns="http://www.w3.org/2000/svg">
<path d="M37.0669 70.4912C39.9686 69.5315 42.1765 64.8627 40.9352 61.8823C34.9801 47.5825 37.9529 28.9706 62.9732 41.5795C74.5448 47.8047 77.7391 66.0455 70.1077 82.3213C62.4764 98.5972 48.6405 106.869 35.0098 101.241C11.4102 91.4983 23.7323 74.9013 37.0669 70.4912Z" fill="#C2D6E0"/>
<path d="M52.7694 49.4353C49.86 50.189 47.8344 54.5026 48.7708 57.5356C52.7854 70.5392 44.525 85.976 27.8282 78.4747C16.1123 72.5253 12.487 54.3654 19.7307 37.9133C26.9744 21.4613 42.3442 12.9472 54.0601 18.8965C73.7724 30.7538 66.4722 45.8854 52.7694 49.4353Z" fill="#528DC1"/>
<path d="M45.9691 65.5598C45.2232 65.5268 44.4655 65.3267 43.8747 64.8307C31.8793 54.7603 39.7661 29.864 62.9732 41.5795C74.5448 47.8047 77.7391 66.0455 70.1077 82.3213C62.4764 98.5972 46.6328 101.277 45.2709 86.1518C44.6561 79.3227 56.2298 66.0126 45.9691 65.5598Z" fill="#C2D6E0"/>
<path d="M34.798 67.3821C34.1255 67.8337 33.2071 67.6559 32.8267 66.9407C32.3978 66.1343 32.041 65.2841 31.7563 64.39C31.3188 63.0163 31.1 61.5764 31.1 60.0705C31.1 58.5392 31.3188 57.093 31.7563 55.7319C32.0435 54.8383 32.4041 53.9866 32.838 53.1768C33.2149 52.4733 34.1176 52.2938 34.7847 52.7319C35.4642 53.1781 35.6361 54.0922 35.2687 54.8173C34.984 55.3794 34.7431 55.9701 34.5461 56.5894C34.1941 57.6958 34.0177 58.8561 34.0167 60.0705C34.0157 61.2848 34.1922 62.4393 34.5461 63.534C34.7443 64.1472 34.9858 64.7334 35.2707 65.2926C35.6394 66.0165 35.4724 66.9291 34.798 67.3821ZM45.6834 68.8205C43.2528 68.8205 41.1868 67.9698 39.4854 66.2684C37.7841 64.567 36.9334 62.501 36.9334 60.0705C36.9334 57.6399 37.7841 55.5739 39.4854 53.8725C41.1868 52.1711 43.2528 51.3205 45.6834 51.3205C48.1139 51.3205 50.1799 52.1711 51.8813 53.8725C53.5827 55.5739 54.4334 57.6399 54.4334 60.0705C54.4334 62.501 53.5827 64.567 51.8813 66.2684C50.1799 67.9698 48.1139 68.8205 45.6834 68.8205ZM58.4971 66.9591C58.1192 67.662 57.2132 67.834 56.5539 67.3844C55.8899 66.9317 55.7369 66.0256 56.1082 65.3129C56.4028 64.7473 56.6466 64.1543 56.8396 63.534C57.1799 62.4402 57.35 61.2857 57.35 60.0705C57.35 58.8552 57.1799 57.6948 56.8396 56.5894C56.6466 55.9625 56.4028 55.3647 56.1082 54.7959C55.7388 54.0827 55.8972 53.1762 56.5655 52.7306C57.2203 52.2941 58.1113 52.4683 58.4857 53.1605C58.9263 53.9752 59.2954 54.8323 59.5929 55.7319C60.0431 57.093 60.2677 58.5392 60.2667 60.0705C60.2667 61.5774 60.0421 63.0177 59.5929 64.3915C59.2985 65.2921 58.9332 66.148 58.4971 66.9591Z" fill="#2F3E45"/>
<path d="M228.905 60.501H225.038C224.386 60.501 224.059 60.1744 224.059 59.5212V31.4808C224.059 30.8276 224.386 30.501 225.038 30.501H228.532C229.184 30.501 229.619 30.7187 229.836 31.1542L239.247 48.8369H239.433V31.4808C239.433 30.8276 239.759 30.501 240.412 30.501H244.278C244.931 30.501 245.257 30.8276 245.257 31.4808V59.5212C245.257 60.1744 244.931 60.501 244.278 60.501H240.877C240.194 60.501 239.697 60.1899 239.387 59.5679L230.069 42.2117H229.883V59.5212C229.883 60.1744 229.557 60.501 228.905 60.501Z" fill="#C2D6E0"/>
<path d="M217.979 60.501H202.745C202.093 60.501 201.767 60.1744 201.767 59.5212V31.4808C201.767 30.8276 202.093 30.501 202.745 30.501H217.979C218.6 30.501 218.911 30.8276 218.911 31.4808V34.6534C218.911 35.3066 218.6 35.6332 217.979 35.6332H208.242C207.87 35.6332 207.683 35.8042 207.683 36.1464V42.2117C207.683 42.5539 207.87 42.7249 208.242 42.7249H216.209C216.861 42.7249 217.187 43.0515 217.187 43.7047V46.8773C217.187 47.5305 216.861 47.8571 216.209 47.8571H208.242C207.87 47.8571 207.683 48.0282 207.683 48.3703V54.8556C207.683 55.1977 207.87 55.3688 208.242 55.3688H217.979C218.6 55.3688 218.911 55.6954 218.911 56.3486V59.5212C218.911 60.1744 218.6 60.501 217.979 60.501Z" fill="#C2D6E0"/>
<path d="M188.54 60.501H183.601C181.148 60.501 179.253 59.8478 177.918 58.5414C176.582 57.235 175.914 55.3532 175.914 52.896V38.106C175.914 35.6487 176.582 33.7669 177.918 32.4605C179.253 31.1542 181.148 30.501 183.601 30.501H188.54C190.962 30.501 192.841 31.1697 194.177 32.5072C195.512 33.8136 196.18 35.6798 196.18 38.106V39.5056C196.18 40.1899 195.854 40.5321 195.202 40.5321H191.242C190.589 40.5321 190.263 40.1899 190.263 39.5056V38.3859C190.263 37.3906 190.061 36.6907 189.658 36.2864C189.254 35.8509 188.555 35.6332 187.561 35.6332H184.533C183.57 35.6332 182.871 35.8509 182.437 36.2864C182.033 36.6907 181.831 37.3906 181.831 38.3859V52.6161C181.831 53.6114 182.033 54.3268 182.437 54.7623C182.871 55.1666 183.57 55.3688 184.533 55.3688H187.561C188.555 55.3688 189.254 55.1666 189.658 54.7623C190.061 54.3268 190.263 53.6114 190.263 52.6161V49.6767C190.263 49.3346 190.092 49.1635 189.751 49.1635H186.956C186.303 49.1635 185.977 48.8369 185.977 48.1837V45.0111C185.977 44.3579 186.303 44.0313 186.956 44.0313H195.108C195.823 44.0313 196.18 44.389 196.18 45.1044V52.896C196.18 55.3221 195.512 57.2039 194.177 58.5414C192.841 59.8478 190.962 60.501 188.54 60.501Z" fill="#C2D6E0"/>
<path d="M149.143 60.501H142.621C141.938 60.501 141.55 60.1744 141.457 59.5212L136.472 31.4808C136.379 30.8276 136.705 30.501 137.45 30.501H142.295C143.009 30.501 143.382 30.8276 143.413 31.4808L146.115 54.4823H146.441L150.914 31.3408C151.007 30.7809 151.333 30.501 151.892 30.501H157.11C157.7 30.501 158.042 30.7654 158.135 31.2941L162.7 54.4823H163.073L165.729 31.5274C165.76 30.8431 166.132 30.501 166.847 30.501H171.692C172.437 30.501 172.763 30.8431 172.67 31.5274L167.639 59.5212C167.545 60.1744 167.188 60.501 166.567 60.501H159.998C159.346 60.501 158.973 60.1744 158.88 59.5212L154.687 37.6394H154.501L150.262 59.5212C150.137 60.1744 149.765 60.501 149.143 60.501Z" fill="#C2D6E0"/>
<path d="M132.721 60.501H117.487C116.834 60.501 116.508 60.1744 116.508 59.5212V31.4808C116.508 30.8276 116.834 30.501 117.487 30.501H132.721C133.342 30.501 133.652 30.8276 133.652 31.4808V34.6534C133.652 35.3066 133.342 35.6332 132.721 35.6332H122.984C122.611 35.6332 122.425 35.8042 122.425 36.1464V42.2117C122.425 42.5539 122.611 42.7249 122.984 42.7249H130.95C131.603 42.7249 131.929 43.0515 131.929 43.7047V46.8773C131.929 47.5305 131.603 47.8571 130.95 47.8571H122.984C122.611 47.8571 122.425 48.0282 122.425 48.3703V54.8556C122.425 55.1977 122.611 55.3688 122.984 55.3688H132.721C133.342 55.3688 133.652 55.6954 133.652 56.3486V59.5212C133.652 60.1744 133.342 60.501 132.721 60.501Z" fill="#C2D6E0"/>
<path d="M94.1017 60.501H90.235C89.5827 60.501 89.2566 60.1744 89.2566 59.5212V31.4808C89.2566 30.8276 89.5827 30.501 90.235 30.501H93.729C94.3812 30.501 94.816 30.7187 95.0334 31.1542L104.444 48.8369H104.63V31.4808C104.63 30.8276 104.957 30.501 105.609 30.501H109.475C110.128 30.501 110.454 30.8276 110.454 31.4808V59.5212C110.454 60.1744 110.128 60.501 109.475 60.501H106.075C105.391 60.501 104.894 60.1899 104.584 59.5679L95.2664 42.2117H95.08V59.5212C95.08 60.1744 94.7539 60.501 94.1017 60.501Z" fill="#C2D6E0"/>
<path d="M164.987 89.501H163.128C162.794 89.501 162.627 89.3335 162.627 88.9986V71.0033C162.627 70.6684 162.794 70.501 163.128 70.501H164.987C165.322 70.501 165.489 70.6684 165.489 71.0033V78.3906C165.489 78.5875 165.607 78.686 165.843 78.686H172.07C172.266 78.686 172.365 78.5875 172.365 78.3906V71.0033C172.365 70.6684 172.532 70.501 172.866 70.501H174.755C175.089 70.501 175.257 70.6684 175.257 71.0033V88.9986C175.257 89.3335 175.089 89.501 174.755 89.501H172.866C172.532 89.501 172.365 89.3335 172.365 88.9986V81.5227C172.365 81.3258 172.266 81.2273 172.07 81.2273H165.843C165.607 81.2273 165.489 81.3258 165.489 81.5227V88.9986C165.489 89.3335 165.322 89.501 164.987 89.501Z" fill="#528DC1"/>
<path d="M155.025 89.501H153.166C152.812 89.501 152.635 89.3335 152.635 88.9986V73.3081C152.635 73.1111 152.537 73.0126 152.34 73.0126H148.622C148.268 73.0126 148.09 72.8452 148.09 72.5103V71.0033C148.09 70.6684 148.268 70.501 148.622 70.501H159.57C159.924 70.501 160.101 70.6684 160.101 71.0033V72.5103C160.101 72.8452 159.924 73.0126 159.57 73.0126H155.851C155.635 73.0126 155.527 73.1111 155.527 73.3081V88.9986C155.527 89.3335 155.36 89.501 155.025 89.501Z" fill="#528DC1"/>
<path d="M146.609 89.501H137.048C136.714 89.501 136.547 89.3335 136.547 88.9986V71.0033C136.547 70.6684 136.714 70.501 137.048 70.501H138.907C139.242 70.501 139.409 70.6684 139.409 71.0033V86.6347C139.409 86.8317 139.527 86.9302 139.763 86.9302H146.609C146.944 86.9302 147.111 87.1075 147.111 87.4621V88.9986C147.111 89.3335 146.944 89.501 146.609 89.501Z" fill="#528DC1"/>
<path d="M121.413 89.501H119.288C119.013 89.501 118.914 89.3335 118.993 88.9986L124.127 71.0033C124.226 70.6684 124.462 70.501 124.836 70.501H127.787C128.18 70.501 128.416 70.6684 128.495 71.0033L133.629 88.9986C133.708 89.3335 133.6 89.501 133.305 89.501H131.21C131.033 89.501 130.905 89.4714 130.826 89.4123C130.767 89.3335 130.718 89.1956 130.679 88.9986L129.557 85.1573H123.065L121.944 88.9986C121.865 89.3335 121.688 89.501 121.413 89.501ZM126.252 73.3377L123.655 82.7934H128.997L126.37 73.3377H126.252Z" fill="#528DC1"/>
<path d="M116.146 89.501H106.703C106.369 89.501 106.201 89.3335 106.201 88.9986V71.0033C106.201 70.6684 106.369 70.501 106.703 70.501H116.146C116.461 70.501 116.618 70.6684 116.618 71.0033V72.5103C116.618 72.8452 116.461 73.0126 116.146 73.0126H109.418C109.182 73.0126 109.064 73.1111 109.064 73.3081V78.3019C109.064 78.4989 109.182 78.5974 109.418 78.5974H115.113C115.467 78.5974 115.644 78.7648 115.644 79.0997V80.6067C115.644 80.9416 115.467 81.1091 115.113 81.1091H109.418C109.182 81.1091 109.064 81.2076 109.064 81.4046V86.6643C109.064 86.881 109.182 86.9893 109.418 86.9893H116.146C116.461 86.9893 116.618 87.1568 116.618 87.4916V88.9986C116.618 89.3335 116.461 89.501 116.146 89.501Z" fill="#528DC1"/>
<path d="M91.6174 89.501H89.7583C89.4238 89.501 89.2566 89.3335 89.2566 88.9986V71.0033C89.2566 70.6684 89.4238 70.501 89.7583 70.501H91.6174C91.9518 70.501 92.119 70.6684 92.119 71.0033V78.3906C92.119 78.5875 92.2371 78.686 92.4731 78.686H98.6996C98.8964 78.686 98.9947 78.5875 98.9947 78.3906V71.0033C98.9947 70.6684 99.1619 70.501 99.4964 70.501H101.385C101.719 70.501 101.887 70.6684 101.887 71.0033V88.9986C101.887 89.3335 101.719 89.501 101.385 89.501H99.4964C99.1619 89.501 98.9947 89.3335 98.9947 88.9986V81.5227C98.9947 81.3258 98.8964 81.2273 98.6996 81.2273H92.4731C92.2371 81.2273 92.119 81.3258 92.119 81.5227V88.9986C92.119 89.3335 91.9518 89.501 91.6174 89.501Z" fill="#528DC1"/>
</svg>
