<svg width="512" height="512" viewBox="0 0 512 512" fill="none" xmlns="http://www.w3.org/2000/svg">
<rect width="512" height="512" fill="#0D3540"/>
<g clip-path="url(#clip0_741_183)">
<path d="M263.612 286.483C252.686 275.825 242.311 265.717 233.885 255.638L222.642 266.116L244.513 293.204L242.246 295.366C238.166 299.253 234.32 303.268 230.556 307.207C213.087 325.515 196.531 342.794 165.232 337.019C163.083 336.624 160.715 335.651 158.217 334.619C153.693 332.747 148.579 330.627 145.271 332.207C143.394 333.108 141.907 335.35 140.866 338.869C140.474 340.168 140.317 341.967 142.464 344.272C150.515 352.958 178.754 356.712 186.443 355.09L191.231 354.054L190.514 358.897C187.946 376.543 191.549 392.313 201.865 408.562C212.392 425.176 229.757 435.786 249.476 437.698C269.235 439.598 288.454 432.483 302.065 418.123L303.032 417.057C345.944 366.769 304.085 325.952 263.612 286.483ZM301.149 387.311C295.237 405.687 279.498 417.914 260.05 419.197C258.321 419.307 256.581 419.338 254.885 419.277C236.422 418.618 219.897 407.892 211.838 390.928C204.395 375.259 206.337 359.541 217.582 344.182C219.005 342.242 251.153 311.272 255.609 310.263H255.622C268.553 307.515 298.46 349.657 301.236 359.242C304.048 368.961 304.016 378.393 301.149 387.311Z" fill="#A8DCD9"/>
<path d="M229.776 261.073C240.077 249.81 249.847 239.115 259.65 230.37L248.809 219.476L222.436 242.209L220.202 240.014C216.182 236.063 212.043 232.351 207.983 228.718C189.112 211.859 171.299 195.878 176.055 164.418C176.381 162.258 177.277 159.861 178.227 157.332C179.953 152.751 181.906 147.573 180.218 144.319C179.256 142.473 176.966 141.06 173.415 140.134C172.103 139.785 170.3 139.686 168.064 141.906C159.642 150.232 156.805 178.569 158.677 186.199L159.869 190.949L155.003 190.39C137.278 188.397 121.627 192.509 105.717 203.343C89.4477 214.401 79.4035 232.095 78.1325 251.859C76.8751 271.663 84.6119 290.634 99.4107 303.768L100.509 304.699C152.179 345.941 191.63 302.793 229.776 261.073ZM130.186 301.852C111.623 296.542 98.8869 281.214 96.9735 261.824C96.8067 260.1 96.7192 258.363 96.7249 256.666C96.7848 238.197 106.972 221.339 123.671 212.735C139.095 204.79 154.873 206.22 170.594 216.957C172.579 218.316 204.588 249.431 205.74 253.849V253.862C208.909 266.693 167.746 297.943 158.253 301.028C148.627 304.152 139.197 304.427 130.186 301.852Z" fill="#A8DCD9"/>
<path d="M251.849 225.555C262.831 236.157 273.258 246.212 281.735 256.247L292.924 245.712L270.913 218.736L273.169 216.563C277.229 212.655 281.055 208.62 284.798 204.662C302.172 186.264 318.638 168.9 349.967 174.513C352.118 174.897 354.49 175.858 356.994 176.876C361.528 178.726 366.652 180.819 369.952 179.222C371.824 178.311 373.299 176.061 374.322 172.537C374.707 171.236 374.855 169.436 372.696 167.142C364.601 158.498 336.342 154.889 328.662 156.552L323.879 157.613L324.571 152.766C327.048 135.107 323.363 119.356 312.965 103.16C302.351 86.6007 284.933 76.0805 265.204 74.2708C245.436 72.4731 226.254 79.6869 212.716 94.1161L211.755 95.1877C169.104 145.696 211.173 186.297 251.849 225.555ZM213.792 124.922C219.609 106.516 235.284 94.2083 254.725 92.8258C256.454 92.706 258.193 92.6664 259.89 92.7185C278.356 93.2826 294.936 103.923 303.083 120.846C310.606 136.475 308.746 152.203 297.58 167.62C296.167 169.567 264.179 200.703 259.729 201.734H259.716C246.799 204.55 216.675 162.563 213.849 152.992C210.988 143.288 210.972 133.856 213.792 124.922Z" fill="#A8DCD9"/>
<path d="M283.185 251.52C272.976 262.866 263.294 273.64 253.562 282.465L264.491 293.27L290.678 270.324L292.931 272.5C296.982 276.418 301.151 280.096 305.241 283.696C324.249 300.401 342.192 316.236 337.692 347.734C337.384 349.897 336.507 352.301 335.578 354.838C333.89 359.433 331.979 364.627 333.693 367.867C334.67 369.705 336.972 371.099 340.53 371.996C341.845 372.334 343.649 372.418 345.866 370.18C354.221 361.786 356.826 333.427 354.892 325.813L353.661 321.072L358.532 321.592C376.273 323.44 391.889 319.2 407.711 308.238C423.889 297.047 433.789 279.272 434.898 259.498C435.994 239.685 428.102 220.777 413.197 207.764L412.092 206.842C360.087 166.023 320.989 209.49 283.185 251.52ZM382.438 209.93C401.045 215.089 413.905 230.313 415.977 249.687C416.158 251.409 416.259 253.146 416.268 254.843C416.359 273.311 406.309 290.252 389.681 298.992C374.323 307.062 358.533 305.761 342.725 295.152C340.729 293.81 308.468 262.957 307.279 258.548V258.535C304.006 245.73 344.912 214.146 354.38 210.984C363.979 207.781 373.407 207.429 382.438 209.93Z" fill="#A8DCD9"/>
</g>
<defs>
<clipPath id="clip0_741_183">
<rect width="357" height="364" fill="white" transform="translate(78 74)"/>
</clipPath>
</defs>
</svg>
