<?xml version="1.0" encoding="UTF-8"?><svg id="Layer_2" xmlns="http://www.w3.org/2000/svg" viewBox="0 0 68.5087 69.8751"><g id="Components"><g id="a1735c65-68a3-4f85-86a8-d8838ef0bd59_10"><path d="M35.6189,40.7893c-2.0967-2.0461-4.0877-3.9865-5.7046-5.9212l-2.1576,2.0113,4.1972,5.2001-.435.4149c-.783.7462-1.5211,1.517-2.2434,2.2731-3.3523,3.5145-6.5294,6.8314-12.5358,5.7229-.4124-.0759-.8667-.2627-1.3461-.4607-.8683-.3595-1.8496-.7664-2.4844-.4631-.3602.173-.6455.6034-.8454,1.2788-.0751.2494-.1053.5947.3068,1.0373,1.5449,1.6673,6.9641,2.388,8.4396,2.0766l.9188-.1989-.1376.9297c-.4928,3.3874.1987,6.4147,2.1782,9.5339,2.0202,3.1894,5.3525,5.2261,9.1366,5.5931,3.7918.3647,7.4799-1.0011,10.092-3.7576l.1856-.2048c8.2347-9.6534.202-17.4889-7.5649-25.0654ZM42.8223,60.1447c-1.1345,3.5275-4.1548,5.8746-7.8869,6.1208-.3318.0213-.6657.0272-.9912.0155-3.5431-.1266-6.7141-2.1856-8.2608-5.4421-1.4282-3.0078-1.0556-6.0251,1.1024-8.9736.2731-.3723,6.4423-6.3175,7.2973-6.5111h.0025c2.4816-.5276,8.2207,7.5622,8.7535,9.4021.5395,1.8657.5334,3.6762-.0168,5.3883Z" style="fill:#0c3d49;"/><path d="M29.1259,35.9113c1.9769-2.1621,3.8517-4.215,5.7329-5.8938l-2.0803-2.0912-5.0611,4.3638-.4288-.4213c-.7713-.7584-1.5656-1.4711-2.3447-2.1684-3.6215-3.2364-7.0398-6.3041-6.127-12.3433.0624-.4147.2344-.8748.4167-1.3603.3312-.8795.706-1.8735.3822-2.4981-.1846-.3544-.6241-.6256-1.3056-.8034-.2518-.067-.5978-.0859-1.0268.3403-1.6162,1.5982-2.1607,7.038-1.8014,8.5026l.2287.9119-.9337-.1074c-3.4016-.3826-6.4049.4069-9.4581,2.4866C2.1968,26.952.2693,30.3486.0254,34.1426c-.2413,3.8017,1.2434,7.4435,4.0833,9.9647l.2107.1788c9.9157,7.9169,17.4863-.366,24.8065-8.3748ZM10.0146,43.7395c-3.5624-1.0194-6.0064-3.9618-6.3736-7.684-.032-.331-.0488-.6644-.0477-.9902.0115-3.5453,1.9664-6.7815,5.171-8.4331,2.9598-1.5252,5.9877-1.2507,9.0046.8105.3809.2608,6.5234,6.2338,6.7446,7.082v.0025c.608,2.4631-7.2912,8.4619-9.1129,9.0541-1.8472.5998-3.6569.6525-5.386.1582Z" style="fill:#0c3d49;"/><path d="M33.3617,29.0933c2.1073,2.0352,4.1083,3.9654,5.7351,5.8917l2.1472-2.0224-4.224-5.1784.4329-.4171c.7792-.7503,1.5133-1.5248,2.2316-2.2846,3.3341-3.5317,6.4941-6.865,12.5061-5.7876.4128.0737.868.2582,1.3484.4537.8702.3551,1.8535.7569,2.4867.4503.3593-.1749.6424-.6068.8387-1.2832.0738-.2498.1022-.5953-.3121-1.0357-1.5535-1.6593-6.9763-2.3521-8.4502-2.033l-.9178.2037.1328-.9304c.4753-3.3899-.2318-6.4136-2.2273-9.5225C43.0531,2.4189,39.7104.3994,35.9245.052c-3.7936-.3451-7.4746,1.0397-10.0725,3.8096l-.1845.2057c-8.1847,9.6958-.1117,17.4897,7.6942,25.026ZM26.0584,9.7753c1.1163-3.5333,4.1244-5.896,7.8552-6.1614.3317-.023.6655-.0306.9911-.0206,3.5437.1083,6.7253,2.1509,8.2888,5.3994,1.4437,3.0004,1.0867,6.0196-1.0561,8.9791-.2711.3737-6.4096,6.3507-7.2636,6.5487h-.0025c-2.4788.5404-8.2596-7.5196-8.8019-9.3568-.5491-1.8629-.5523-3.6734-.0111-5.3883Z" style="fill:#0c3d49;"/><path d="M39.3754,34.0775c-1.9592,2.1781-3.8172,4.2463-5.6846,5.9404l2.0972,2.0742,5.0254-4.4049.4322.4178c.7774.7521,1.5775,1.4582,2.3623,2.1492,3.6477,3.2068,7.091,6.2465,6.2274,12.293-.059.4152-.2273.8767-.4056,1.3637-.324.8822-.6907,1.8792-.3618,2.5011.1875.3529.6292.6205,1.3121.7927.2523.0649.5985.081,1.024-.3486,1.6032-1.6113,2.1032-7.0553,1.732-8.517l-.2361-.91.9346.0998c3.4046.3548,6.4013-.4591,9.4375-2.5636,3.1047-2.1481,5.0044-5.5603,5.2173-9.3562.2103-3.8035-1.3041-7.4331-4.1644-9.9311l-.2121-.1771c-9.9799-7.8358-17.4827.5086-24.7374,8.5768ZM58.4222,26.0938c3.5706.9903,6.0385,3.9127,6.4361,7.6318.0347.3307.0542.664.0558.9898.0175,3.5453-1.911,6.7973-5.102,8.475-2.9473,1.5492-5.9773,1.2995-9.0109-.737-.383-.2577-6.574-6.1804-6.8022-7.0268v-.0025c-.628-2.4581,7.2219-8.5211,9.0387-9.1281,1.8422-.6148,3.6515-.6823,5.3846-.2021Z" style="fill:#0c3d49;"/></g></g></svg>