<?xml version="1.0" encoding="UTF-8"?><svg id="Layer_2" xmlns="http://www.w3.org/2000/svg" viewBox="0 0 169.2614 161.0908"><g id="Components"><g id="_784168ac-98d9-4537-a441-1792c04ac1ed_5"><path d="M86.1919,87.2726c-2.3359-2.2795-4.554-4.4413-6.3553-6.5967l-2.4038,2.2407,4.676,5.7933-.4847.4622c-.8724.8314-1.6946,1.6901-2.4993,2.5324-3.7347,3.9154-7.2743,7.6107-13.9658,6.3758-.4595-.0845-.9656-.2927-1.4996-.5132-.9674-.4006-2.0606-.8539-2.7678-.516-.4013.1928-.7191.6723-.9418,1.4247-.0837.2779-.1173.6626.3417,1.1556,1.7211,1.8575,7.7585,2.6605,9.4023,2.3135l1.0237-.2216-.1533,1.0358c-.5491,3.7738.2214,7.1465,2.4266,10.6215,2.2507,3.5532,5.9631,5.8223,10.1788,6.2311,4.2244.4063,8.3332-1.1153,11.2433-4.1862l.2068-.2281c9.174-10.7546.225-19.484-8.4278-27.9247ZM94.2171,108.836c-1.2639,3.9299-4.6287,6.5448-8.7866,6.819-.3697.0237-.7416.0303-1.1043.0173-3.9473-.141-7.48-2.4349-9.2031-6.0629-1.5912-3.3509-1.176-6.7124,1.2282-9.9972.3042-.4147,7.1772-7.0382,8.1297-7.2539h.0028c2.7646-.5878,9.1585,8.4248,9.752,10.4747.601,2.0785.5942,4.0955-.0187,6.003Z" style="fill:#fff;"/><path d="M78.9582,81.8382c2.2024-2.4087,4.2911-4.6959,6.3869-6.5662l-2.3176-2.3297-5.6385,4.8616-.4777-.4694c-.8593-.8449-1.7442-1.6389-2.6122-2.4158-4.0346-3.6056-7.8429-7.0233-6.8259-13.7514.0695-.462.2612-.9746.4642-1.5155.3689-.9799.7865-2.0872.4258-2.7831-.2057-.3948-.6953-.6969-1.4545-.895-.2805-.0746-.666-.0957-1.1439.3791-1.8006,1.7805-2.4071,7.8408-2.0069,9.4725l.2547,1.0159-1.0402-.1196c-3.7897-.4262-7.1355.4533-10.5371,2.7702-3.4783,2.3649-5.6256,6.149-5.8973,10.3758-.2689,4.2353,1.3853,8.2926,4.5491,11.1014l.2347.1992c11.0469,8.82,19.481-.4077,27.6363-9.3301ZM57.6668,90.5593c-3.9688-1.1357-6.6916-4.4138-7.1007-8.5606-.0357-.3687-.0543-.7402-.0531-1.1032.0128-3.9498,2.1907-7.5551,5.7608-9.3952,3.2975-1.6991,6.6707-1.3933,10.0318.9029.4244.2906,7.2676,6.9449,7.514,7.8899v.0028c.6773,2.7441-8.1229,9.4272-10.1524,10.087-2.0579.6682-4.0741.7269-6.0004.1763Z" style="fill:#fff;"/><path d="M83.6772,74.2424c2.3477,2.2674,4.5769,4.4177,6.3893,6.5638l2.3922-2.2531-4.7058-5.7691.4823-.4647c.8681-.8359,1.6859-1.6988,2.4862-2.5452,3.7144-3.9346,7.2349-7.6482,13.9327-6.4478.4599.0821.9671.2877,1.5022.5055.9694.3956,2.0649.8432,2.7704.5017.4003-.1949.7157-.676.9344-1.4296.0823-.2783.1139-.6632-.3477-1.1538-1.7307-1.8486-7.7721-2.6204-9.4142-2.2649l-1.0225.2269.148-1.0366c.5296-3.7766-.2583-7.1452-2.4814-10.6088-2.269-3.5416-5.993-5.7914-10.2109-6.1785-4.2264-.3844-8.3273,1.1583-11.2215,4.2442l-.2056.2292c-9.1184,10.8019-.1245,19.4849,8.5719,27.8808ZM75.5408,52.7207c1.2436-3.9363,4.5949-6.5686,8.7513-6.8643.3696-.0256.7414-.0341,1.1042-.023,3.948.1206,7.4925,2.3962,9.2343,6.0153,1.6084,3.3426,1.2106,6.7063-1.1765,10.0034-.3021.4163-7.1408,7.0752-8.0922,7.2957h-.0028c-2.7616.602-9.2019-8.3774-9.806-10.4242-.6117-2.0754-.6154-4.0924-.0123-6.003Z" style="fill:#fff;"/><path d="M90.377,79.7952c-2.1827,2.4266-4.2526,4.7307-6.3331,6.618l2.3365,2.3108,5.5986-4.9074.4815.4655c.8661.8379,1.7575,1.6246,2.6318,2.3944,4.0638,3.5726,7.8999,6.9591,6.9378,13.6953-.0658.4625-.2532.9767-.4519,1.5192-.3609.9829-.7695,2.0935-.4031,2.7864.2089.3931.7009.6912,1.4618.8831.2811.0723.6668.0903,1.1408-.3884,1.786-1.7952,2.3431-7.8602,1.9296-9.4885l-.263-1.0138,1.0412.1111c3.793.3953,7.1316-.5115,10.5141-2.8561,3.4589-2.3932,5.5753-6.1946,5.8125-10.4235.2343-4.2374-1.4528-8.281-4.6395-11.0639l-.2363-.1973c-11.1184-8.7296-19.477.5666-27.5593,9.5552ZM111.5965,70.9007c3.978,1.1033,6.7274,4.3591,7.1703,8.5024.0387.3684.0604.7398.0621,1.1027.0194,3.9497-2.129,7.5727-5.6841,9.4418-3.2835,1.726-6.6591,1.4477-10.0388-.8211-.4267-.2871-7.3239-6.8854-7.5781-7.8284v-.0028c-.6997-2.7385,8.0458-9.4931,10.0698-10.1694,2.0524-.6849,4.068-.7601,5.9988-.2252Z" style="fill:#fff;"/><path d="M1.1559,100.5742l-1.0869-7.2598c-.4092-2.7383,1.0303-4.8418,3.5723-5.2227,1.8916-.2832,3.3623.3398,4.25,2.1191l.0654-.0098c.3281-1.6719,1.3398-2.334,3.6211-2.8301,2.4727-.5488,3.0645-.9043,3.2168-1.2168l.0879-.0117.3145,2.1074c-.2344.3691-.8105.5215-3.3926,1.0859-2.2578.4941-2.9258,1.5264-2.6133,3.6133l.6475,4.3242,6.5635-.9824.293,1.9561-15.5391,2.3271ZM8.2516,97.5117l-.6895-4.6074c-.3252-2.1738-1.5742-3.0977-3.3359-2.833-1.8887.2832-2.7168,1.2939-2.375,3.5771l.707,4.7148,5.6934-.8516Z" style="fill:#fff;"/><path d="M9.2907,85.5039c-3.2959-.0908-5.918-2.3184-5.8281-5.5498.0947-3.4072,2.7832-5.1582,6.541-5.0518l-.2441,8.7891c2.3115-.0674,4.1055-1.2715,4.168-3.5566.0459-1.6484-.7148-2.7695-2.2422-3.207l.0479-1.7363c2.4248.5938,3.7607,2.4121,3.6885,4.9844-.0957,3.4727-2.834,5.4199-6.1309,5.3281ZM8.4196,83.6104l.1904-6.835c-2.2666.0469-3.6836,1.1738-3.7402,3.2178-.0586,2.1104,1.4912,3.2959,3.5498,3.6172Z" style="fill:#fff;"/><path d="M.0485,71.5293l.2441-1.7646,15.5664,2.167-.2441,1.7656L.0485,71.5293Z" style="fill:#fff;"/><path d="M.8356,66.5566l.3496-1.7461,15.4121,3.0859-.3496,1.7461-15.4121-3.0859Z" style="fill:#fff;"/><path d="M1.9039,61.6992l.4512-1.7227,2.127.5586-.4531,1.7227-2.125-.5586ZM6.1139,62.8027l.4531-1.7227,10.9932,2.8848-.4512,1.7227-10.9951-2.8848Z" style="fill:#fff;"/><path d="M18.986,54.916l-.0059.0215c.5801.9473,1.0293,2.3643.3437,4.1729-.7627,2.0146-2.3076,3.2373-4.3223,2.4736-2.5059-.9502-2.2725-3.1172-1.6777-5.9238.3418-1.5859.5957-2.6875-.5547-3.125-1.1934-.4512-2.1973.1553-2.7734,1.6758-.6543,1.7266-.2422,2.8701,1.3379,3.5391l-.6084,1.6016c-2.0322-.8398-3.0576-2.7793-1.9912-5.5957.8574-2.2598,2.3301-3.6055,4.8574-2.6465l5.0547,1.916c.8633.3262,1.4141.3008,1.5586-.7012l.0234-.0625,1.2129.459c.0039.2373-.0146.5352-.1797.9668-.4121,1.0889-1.123,1.4785-2.2754,1.2285ZM16.5582,53.9492l-1.8096-.6865c.1396.6875.041,1.7539-.1377,2.7217-.3242,1.7812-.542,3.2256,1.0195,3.8174,1.418.5381,2.1475-.4551,2.5605-1.5439.8398-2.2188-.4004-3.8418-1.6328-4.3086Z" style="fill:#fff;"/><path d="M10.3326,40.1953l1.1006-1.6426,5.5508,3.7129,4.667-6.9756-5.5518-3.7139,1.0986-1.6445,13.0586,8.7344-1.0986,1.6445-6.1738-4.1299-4.666,6.9775,6.1729,4.1279-1.0986,1.6445-13.0596-8.7354Z" style="fill:#fff;"/><path d="M27.1324,33.6846c-2.3564-2.3057-2.7666-5.7207-.5059-8.0303,2.3818-2.4336,5.543-1.8945,8.2285.7354l-6.1494,6.2842c1.7432,1.5195,3.876,1.8535,5.4746.2197,1.1533-1.1777,1.3555-2.5166.5322-3.876l1.2148-1.2402c1.375,2.082,1.1191,4.3223-.6797,6.1611-2.4277,2.4834-5.7598,2.0518-8.1152-.2539ZM27.7789,31.7041l4.7812-4.8857c-1.6943-1.5039-3.5-1.6416-4.9297-.1797-1.4756,1.5078-1.1445,3.4316.1484,5.0654Z" style="fill:#fff;"/><path d="M44.1813,23.9385l-.0176.0127c-.0225,1.1123-.4082,2.5469-1.9619,3.7002-1.7295,1.2832-3.6904,1.4814-4.9746-.249-1.5986-2.1543-.2314-3.8525,1.7832-5.8955,1.1455-1.1504,1.9541-1.9424,1.2197-2.9307-.7598-1.0234-1.9326-1.0566-3.2402-.0859-1.4824,1.0996-1.752,2.2852-.7832,3.7021l-1.377,1.0205c-1.2568-1.8037-1.0732-3.9922,1.3447-5.7871,1.9424-1.4414,3.9092-1.7773,5.5186.3936l3.2227,4.3418c.5508.7422,1.0273,1.0166,1.6914.25l.0527-.0381.7734,1.041c-.123.2012-.3018.4414-.6719.7178-.9355.6934-1.7432.6377-2.5801-.1934ZM42.6588,21.8105l-1.1533-1.5527c-.2539.6543-.9141,1.5-1.5859,2.2168-1.2324,1.3262-2.1963,2.4238-1.2012,3.7656.9043,1.2178,2.0537.7754,2.9902.0801,1.9062-1.4121,1.7354-3.4502.9502-4.5098Z" style="fill:#fff;"/><path d="M40.4801,9.5801l1.5332-.9023,7.9609,13.5449-1.5352.9023-7.959-13.5449Z" style="fill:#fff;"/><path d="M46.234,11.2559l1.4805-.7246-1.5762-3.2168,1.5986-.7842,1.5752,3.2168,1.9746-.9658.6367,1.3027-1.9727.9668,3.248,6.6309c.3477.71.8389.7637,1.4902.4443.3164-.1543.6328-.4072.7812-.5537l.0586-.0293.6758,1.3818c-.334.2627-.7402.5342-1.2139.7666-1.3018.6387-2.5107.5684-3.2168-.8711l-3.4219-6.9873-1.4805.7256-.6377-1.3027Z" style="fill:#fff;"/><path d="M55.984,8.4414l.043-.0156c.4189-1.2812,1.2793-2.2969,2.8379-2.832,2.2461-.7705,4.0391-.0146,4.8018,2.2109l2.5898,7.5449-1.6836.5781-2.54-7.4004c-.4785-1.3926-1.6641-1.8691-3.1816-1.3486-1.7041.585-2.5381,2.2197-1.9316,3.9854l2.2686,6.6113-1.6836.5781-5.1016-14.8643,1.6846-.5771,1.8965,5.5293Z" style="fill:#fff;"/><path d="M106.1168,0l6.9551,2.3535c2.623.8887,3.8359,3.1318,3.0117,5.5674-.6133,1.8115-1.8418,2.835-3.8281,2.8115l-.0215.0625c1.3359,1.0557,1.4609,2.2588.8613,4.5137-.6445,2.4521-.5986,3.1406-.3916,3.4199l-.0283.082-2.0195-.6836c-.2207-.377-.0918-.959.5869-3.5137.5947-2.2344-.0205-3.3018-2.0186-3.9785l-4.1426-1.4023-2.1289,6.2871-1.873-.6338,5.0371-14.8857ZM105.5953,7.7129l4.4141,1.4932c2.082.7051,3.4746.0166,4.0469-1.6699.6123-1.8115.0898-3.0088-2.0967-3.749l-4.5166-1.5293-1.8477,5.4551Z" style="fill:#fff;"/><path d="M115.8092,14.1387c1.5879-2.8887,4.7676-4.2012,7.5986-2.6445,2.9854,1.6406,3.3125,4.832,1.502,8.123l-7.7041-4.2344c-.9961,2.0859-.7451,4.2305,1.2578,5.332,1.4443.7949,2.7891.6299,3.876-.5273l1.5225.8359c-1.6367,1.8838-3.8643,2.2393-6.1182,1.001-3.043-1.6729-3.5234-4.9971-1.9346-7.8857ZM117.8903,14.2305l5.9902,3.292c.9941-2.0371.6406-3.8115-1.1504-4.7959-1.8496-1.0156-3.6133-.1807-4.8398,1.5039Z" style="fill:#fff;"/><path d="M132.4254,12.2744l1.4609,1.0205-9.0068,12.875-1.46-1.0205,9.0059-12.875Z" style="fill:#fff;"/><path d="M136.4977,15.2441l1.3955,1.1055-9.7539,12.3145-1.3955-1.1055,9.7539-12.3145Z" style="fill:#fff;"/><path d="M137.4323,21.6348l1.3291,1.1855-7.5645,8.4805-1.3281-1.1855,7.5635-8.4805ZM140.3287,18.3867l1.3291,1.1855-1.4629,1.6396-1.3291-1.1855,1.4629-1.6396Z" style="fill:#fff;"/><path d="M138.6198,36.6953l-.0156-.0156c-1.1094.085-2.5752-.1582-3.873-1.5918-1.4463-1.5957-1.834-3.5273-.2383-4.9746,1.9873-1.8008,3.8115-.6055,6.04,1.2002,1.2559,1.0264,2.123,1.7529,3.0352.9277.9443-.8564.8613-2.0283-.2295-3.2314-1.2393-1.3691-2.4463-1.5215-3.7607-.4199l-1.1504-1.2695c1.6729-1.4277,3.8672-1.459,5.8887.7715,1.624,1.791,2.1504,3.7168.1484,5.5312l-4.0068,3.6289c-.6826.6211-.9111,1.123-.083,1.707l.043.0508-.96.8691c-.2129-.1025-.4697-.2559-.7803-.5986-.7812-.8633-.8027-1.6729-.0576-2.585ZM140.5856,34.9727l1.4336-1.2988c-.6748-.1895-1.5801-.7637-2.3613-1.3613-1.4385-1.0977-2.626-1.9492-3.8633-.8281-1.124,1.0195-.5703,2.1201.2119,2.9824,1.5928,1.7578,3.6025,1.3906,4.5791.5059Z" style="fill:#fff;"/><path d="M155.6901,35.7207l.959,1.7305-5.8467,3.2383,4.0703,7.3457,5.8447-3.2383.959,1.7305-13.75,7.6152-.958-1.7305,6.499-3.5996-4.0684-7.3457-6.499,3.5996-.959-1.7305,13.749-7.6152Z" style="fill:#fff;"/><path d="M153.7887,53.6445c3.127-1.042,6.3516.1562,7.3711,3.2207,1.0762,3.2324-.8506,5.7949-4.416,6.9824l-2.7754-8.3418c-2.1484.8545-3.4199,2.5977-2.6992,4.7676.5215,1.5635,1.6182,2.3555,3.2031,2.2461l.5479,1.6475c-2.4814.2686-4.3564-.9834-5.1689-3.4229-1.0957-3.2949.8086-6.0586,3.9375-7.0996ZM155.2535,55.125l2.1592,6.4863c2.1133-.8203,3.0596-2.3633,2.4131-4.3018-.666-2.001-2.5273-2.5869-4.5723-2.1846Z" style="fill:#fff;"/><path d="M154.6793,73.252l-.0039-.0215c-.9785-.5273-2.0811-1.5244-2.4004-3.4316-.3535-2.125.3643-3.96,2.4883-4.3164,2.6445-.4404,3.5352,1.5508,4.4355,4.2734.502,1.543.8389,2.623,2.0527,2.4209,1.2578-.21,1.8203-1.2393,1.5527-2.8438-.3027-1.8213-1.2363-2.6016-2.9375-2.3838l-.2832-1.6914c2.1797-.2969,4.0439.8633,4.54,3.832.3975,2.3857-.1982,4.291-2.8643,4.7344l-5.332.8906c-.9121.1523-1.374.4521-.9941,1.3906l.0107.0664-1.2793.2139c-.1221-.2031-.2568-.4717-.332-.9268-.1914-1.1484.2275-1.8418,1.3467-2.207ZM157.2662,72.8643l1.9072-.3174c-.4658-.5254-.918-1.4961-1.25-2.4219-.6182-1.7012-1.1563-3.0596-2.8047-2.7842-1.4961.249-1.626,1.4746-1.4346,2.624.3916,2.3408,2.2812,3.1172,3.582,2.8994Z" style="fill:#fff;"/><path d="M169.1549,76.457l.1064,1.7754-15.6807.9443-.1074-1.7773,15.6816-.9424Z" style="fill:#fff;"/><path d="M165.0494,80.8223l-.0254,1.6484,3.5811.0566-.0273,1.7793-3.582-.0566-.0332,2.1973-1.4512-.0234.0342-2.1973-7.3828-.1152c-.791-.0117-1.0615.4023-1.0732,1.126-.0059.3525.0762.749.1406.9482l-.002.0664-1.5381-.0254c-.0811-.418-.1406-.9023-.1309-1.4297.0215-1.4502.6318-2.4961,2.2363-2.4707l7.7773.1211.0264-1.6475,1.4502.0225Z" style="fill:#fff;"/><path d="M163.1266,90.8125l-.0059.043c.9512.957,1.4648,2.1855,1.2305,3.8184-.3359,2.3496-1.8252,3.6016-4.1533,3.2686l-7.8994-1.1289.252-1.7627,7.7461,1.1074c1.459.209,2.4229-.6309,2.6504-2.2188.2559-1.7852-.8203-3.2715-2.6699-3.5352l-6.9199-.9902.252-1.7627,15.5586,2.2256-.252,1.7637-5.7891-.8281Z" style="fill:#fff;"/><path d="M37.1149,125.5049l5.5732,4.7793c2.1045,1.8027,2.3916,4.3379.7178,6.291-1.2441,1.4531-2.7666,1.9434-4.6025,1.1797l-.042.0508c.8457,1.4785.5137,2.6406-.8857,4.5117-1.5127,2.0332-1.7275,2.6895-1.6396,3.0254l-.0566.0664-1.6191-1.3887c-.0645-.4316.2725-.9238,1.8555-3.041,1.3857-1.8535,1.2148-3.0723-.3867-4.4453l-3.3223-2.8477-4.3223,5.041-1.502-1.2891,10.2324-11.9336ZM33.7496,132.4678l3.54,3.0332c1.6689,1.4316,3.2197,1.3125,4.3789-.0391,1.2451-1.4531,1.2061-2.7598-.5459-4.2617l-3.623-3.1055-3.75,4.373Z" style="fill:#fff;"/><path d="M42.0875,142.4854c1.6504-2.8535,4.8555-4.0977,7.6533-2.4805,2.9482,1.7031,3.208,4.9004,1.3262,8.1523l-7.6094-4.3984c-1.04,2.0625-.8369,4.2129,1.1416,5.3574,1.4277.8242,2.7754.6895,3.8867-.4453l1.5039.8691c-1.6777,1.8477-3.9121,2.1562-6.1387.8691-3.0039-1.7383-3.4121-5.0703-1.7637-7.9238ZM44.1657,142.6201l5.918,3.4219c1.0371-2.0156.7207-3.7969-1.0469-4.8203-1.8262-1.0547-3.6074-.2578-4.8711,1.3984Z" style="fill:#fff;"/><path d="M57.9528,139.5986l1.6396.6934-6.126,14.4707-1.6387-.6914,6.125-14.4727Z" style="fill:#fff;"/><path d="M61.8619,141.1748l1.6787.5898-5.1982,14.8242-1.6797-.5879,5.1992-14.8262Z" style="fill:#fff;"/><path d="M64.6354,146.6631l1.7139.4805-3.0693,10.9414-1.7139-.4805,3.0693-10.9414ZM65.8102,142.4736l1.7158.4805-.5947,2.1152-1.7139-.4805.5928-2.1152Z" style="fill:#fff;"/><path d="M74.3121,158.6865l-.0205-.0039c-.8115.7598-2.1094,1.4883-4.0186,1.1816-2.125-.3398-3.6357-1.6055-3.2959-3.7324.4238-2.6465,2.5938-2.8555,5.4619-2.8418,1.6221.0156,2.7539.041,2.9473-1.1738.2021-1.2578-.5947-2.1191-2.2012-2.377-1.8213-.293-2.8574.3418-3.1943,2.0234l-1.6904-.2715c.4111-2.1582,2.1035-3.5566,5.0762-3.0801,2.3867.3828,4.002,1.5527,3.5742,4.2227l-.8545,5.3379c-.1455.9102-.0088,1.4434,1.002,1.3828l.0654.0117-.2061,1.2793c-.2314.0508-.5264.0938-.9824.0215-1.1494-.1836-1.6729-.8027-1.6631-1.9805ZM74.7692,156.1123l.3047-1.9102c-.6426.2754-1.709.3945-2.6914.4141-1.8086.0449-3.2695.123-3.5332,1.7715-.2393,1.4961.8809,2.0098,2.0312,2.1934,2.3418.377,3.6797-1.168,3.8887-2.4688Z" style="fill:#fff;"/><path d="M84.1364,145.4404l1.9687-.1758.5957,6.6543,8.3613-.7461-.5947-6.6543,1.9717-.1758,1.3965,15.6504-1.9707.1758-.6602-7.3984-8.3613.7461.6602,7.4004-1.9707.1738-1.3965-15.6504Z" style="fill:#fff;"/><path d="M100.984,153.5557c-.9355-3.1602.3682-6.3418,3.4648-7.2578,3.2646-.9688,5.7617,1.041,6.8281,4.6445l-8.4258,2.4941c.7822,2.1758,2.4824,3.5039,4.6719,2.8555,1.5811-.4668,2.4082-1.5371,2.3516-3.125l1.6641-.4922c.1875,2.4883-1.126,4.3203-3.5898,5.0508-3.3281.9844-6.0273-1.0117-6.9648-4.1699ZM102.5133,152.1396l6.5498-1.9395c-.7461-2.1387-2.2559-3.1367-4.2148-2.5547-2.0225.5977-2.6689,2.4395-2.335,4.4941Z" style="fill:#fff;"/><path d="M122.1315,149.917l-.0205.0098c-.2246,1.0898-.8633,2.4316-2.6006,3.2852-1.9336.9492-3.8984.7871-4.8486-1.1465-1.1816-2.4082.4717-3.832,2.8242-5.4766,1.334-.9238,2.2715-1.5566,1.7295-2.6621-.5625-1.1426-1.7109-1.3867-3.1709-.6699-1.6582.8125-2.1377,1.9297-1.4414,3.498l-1.5391.7559c-.9102-2.0039-.334-4.123,2.3711-5.4492,2.1699-1.0645,4.165-1.041,5.3574,1.3867l2.3828,4.8555c.4062.8281.8262,1.1836,1.6191.5527l.0586-.0293.5713,1.1641c-.1592.1738-.376.3809-.792.584-1.0459.5117-1.8301.3105-2.501-.6582ZM121.0172,147.5498l-.8525-1.7383c-.3682.5977-1.1699,1.3105-1.96,1.8945-1.4531,1.0801-2.6006,1.9863-1.8652,3.4863.6699,1.3613,1.8799,1.1348,2.9258.6211,2.1318-1.0469,2.332-3.0801,1.752-4.2637Z" style="fill:#fff;"/><path d="M119.4449,135.1221l1.4971-.9629,8.499,13.2148-1.4961.9629-8.5-13.2148Z" style="fill:#fff;"/><path d="M124.9684,136.7393l1.3076-1.002-2.1787-2.8457,1.4141-1.084,2.1777,2.8457,1.7461-1.3359.8828,1.1523-1.7451,1.3359,4.4912,5.8652c.4814.627.9736.584,1.5488.1406.2793-.2129.541-.5234.6582-.6953l.0508-.041.9355,1.2227c-.2773.3242-.6211.6699-1.0391.9902-1.1533.8828-2.3516,1.0527-3.3262-.2207l-4.7334-6.1797-1.3096,1.0039-.8809-1.1523Z" style="fill:#fff;"/><path d="M133.5035,131.7373l.0312-.0332c-.1934-1.3359.1279-2.627,1.2881-3.7969,1.6709-1.6855,3.6133-1.8027,5.2832-.1465l5.667,5.6152-1.2539,1.2637-5.5566-5.5078c-1.0469-1.0371-2.3203-.9375-3.4492.2012-1.2686,1.2812-1.291,3.1152.0352,4.4297l4.9629,4.9199-1.2539,1.2637-11.1582-11.0625,1.2529-1.2637,4.1514,4.1172Z" style="fill:#fff;"/><circle cx="85.1046" cy="5.4556" r="2.3859" style="fill:#fff;"/><circle cx="152.3198" cy="114.5095" r="2.3859" style="fill:#fff;"/><circle cx="17.1541" cy="117.2133" r="2.3859" style="fill:#fff;"/></g></g></svg>