<?xml version="1.0" encoding="UTF-8"?><svg id="Layer_2" xmlns="http://www.w3.org/2000/svg" viewBox="0 0 359.5657 90.3896"><g id="Components"><g id="_26dd5189-3646-40b2-a486-9f828238fd39_10"><path d="M91.136,0h39.6074c16.0166,0,25.2041,9.1885,25.2041,23.9639,0,10.9258-4.7178,18.127-14.8984,21.3555v.3721c9.1875,3.1045,12.167,9.8086,12.7881,23.5908.6211,14.2783,2.2354,17.8789,3.8486,18.9961v.4971h-8.9395c-1.9863-1.3662-2.4834-4.7178-3.2275-19.8662-.7451-15.3955-6.084-19.7412-18.9971-19.7412h-27.0674v39.6074h-8.3184V0ZM127.888,42.0908c12.9121,0,19.4932-6.332,19.4932-17.3828s-4.9668-17.3818-18.376-17.3818h-29.5508v34.7646h28.4336Z" style="fill:#0c3d49;"/><path d="M162.1556,56.7422c0-19.2451,11.5469-33.6475,29.3018-33.6475,20.6104,0,27.6875,17.0098,27.5635,35.0127h-48.9189c.3721,14.4033,7.3252,25.7012,21.9756,25.7012,10.6777,0,16.2656-5.7109,18.749-14.4023h7.4492c-2.7314,12.6641-11.7949,20.9834-26.1982,20.9834-19.2441,0-29.9219-14.4023-29.9219-33.6475ZM210.9505,52.0234c-.373-12.6641-6.332-22.5967-19.4932-22.5967-13.0371,0-19.8662,9.8086-21.2314,22.5967h40.7246Z" style="fill:#0c3d49;"/><path d="M232.0569,0h7.6973v88.7754h-7.6973V0Z" style="fill:#0c3d49;"/><path d="M256.5159,0h7.6973v88.7754h-7.6973V0Z" style="fill:#0c3d49;"/><path d="M280.8499,0h7.6973v10.9268h-7.6973V0ZM280.8499,24.584h7.6973v64.1914h-7.6973V24.584Z" style="fill:#0c3d49;"/><path d="M301.0862,72.3857c0-15.2715,11.9199-18.375,26.4463-20.1133,12.665-1.4902,17.2588-2.2354,17.2588-8.6914v-1.2422c0-8.6904-5.4629-12.9121-15.3965-12.9121-11.4229,0-17.3818,4.7178-18.0029,14.2783h-7.5742c.8691-12.416,9.0645-20.4863,25.5771-20.4863,14.0303,0,22.7217,5.835,22.7217,19.8652v34.8896c0,3.8486,1.4902,5.4629,4.2217,5.5869.8691,0,1.7383-.248,2.8555-.4961h.3721v5.5869c-1.1172.4961-2.7314.9932-5.2139.9932-5.5879,0-9.0645-2.8555-9.4365-9.0635v-1.3662h-.373c-3.6006,5.0908-10.1807,11.0508-22.4727,11.0508-11.9199,0-20.9834-5.96-20.9834-17.8799ZM344.9153,65.5576v-11.5469c-4.0977,2.2344-10.4297,3.3516-16.6377,4.2207-10.8018,1.4902-19.1211,3.1045-19.1211,14.1543,0,8.9404,6.7051,11.6719,14.2793,11.6719,14.0293,0,21.4795-9.6846,21.4795-18.5Z" style="fill:#0c3d49;"/><path d="M35.3736,53.7214c-2.0823-2.032-4.0596-3.9591-5.6653-5.8805l-2.1428,1.9974,4.1683,5.1643-.432.412c-.7777.7411-1.5106,1.5066-2.2279,2.2574-3.3292,3.4903-6.4845,6.7844-12.4495,5.6835-.4096-.0753-.8607-.2609-1.3368-.4575-.8624-.3571-1.8368-.7612-2.4673-.4599-.3577.1719-.6411.5993-.8395,1.27-.0746.2477-.1046.5906.3046,1.0302,1.5343,1.6558,6.9161,2.3716,8.3815,2.0623l.9125-.1976-.1367.9233c-.4894,3.3641.1973,6.3705,2.1632,9.4682,2.0063,3.1674,5.3156,5.1901,9.0737,5.5545,3.7657.3622,7.4284-.9942,10.0225-3.7317l.1843-.2033c8.178-9.587.2006-17.3685-7.5128-24.8928ZM42.5275,72.9435c-1.1267,3.5032-4.1262,5.8342-7.8326,6.0786-.3296.0211-.6611.027-.9844.0154-3.5187-.1257-6.6679-2.1705-8.2039-5.4046-1.4184-2.9871-1.0483-5.9836,1.0948-8.9118.2712-.3697,6.3979-6.274,7.247-6.4663h.0025c2.4645-.5239,8.1641,7.5101,8.6932,9.3374.5358,1.8528.5297,3.6509-.0166,5.3512Z" style="fill:#0c3d49;"/><path d="M28.9254,48.8769c1.9633-2.1472,3.8252-4.186,5.6934-5.8532l-2.0659-2.0768-5.0263,4.3338-.4258-.4184c-.766-.7532-1.5548-1.4609-2.3286-2.1535-3.5965-3.2141-6.9914-6.2607-6.0848-12.2584.062-.4118.2328-.8687.4138-1.3509.3289-.8735.7011-1.8606.3796-2.4809-.1834-.3519-.6198-.6213-1.2966-.7979-.25-.0665-.5937-.0853-1.0197.3379-1.6051,1.5872-2.1458,6.9895-1.789,8.444l.2271.9056-.9273-.1066c-3.3782-.3799-6.3608.4041-9.393,2.4695C2.1816,39.9793.2674,43.3525.0253,47.1204c-.2397,3.7755,1.2349,7.3922,4.0552,9.8961l.2092.1776c9.8475,7.8624,17.3659-.3635,24.6357-8.3171ZM9.9457,56.6512c-3.5379-1.0124-5.9651-3.9345-6.3298-7.6311-.0318-.3287-.0484-.6599-.0474-.9834.0114-3.5209,1.9529-6.7348,5.1354-8.3751,2.9395-1.5147,5.9464-1.2421,8.9426.8049.3783.259,6.4785,6.1908,6.6982,7.0332v.0025c.6038,2.4462-7.241,8.4037-9.0501,8.9918-1.8344.5956-3.6317.648-5.3489.1571Z" style="fill:#0c3d49;"/><path d="M33.132,42.1059c2.0928,2.0212,4.08,3.9381,5.6956,5.8511l2.1324-2.0084-4.1949-5.1427.4299-.4142c.7738-.7451,1.5028-1.5143,2.2163-2.2689,3.3111-3.5074,6.4493-6.8178,12.42-5.7477.41.0732.8621.2565,1.3391.4506.8642.3526,1.8407.7517,2.4696.4472.3568-.1737.638-.6026.833-1.2743.0733-.2481.1015-.5912-.31-1.0286-1.5428-1.6479-6.9283-2.3359-8.392-2.019l-.9115.2023.1319-.924c.4721-3.3666-.2302-6.3694-2.212-9.4569-2.0227-3.157-5.3423-5.1626-9.1022-5.5076-3.7675-.3427-7.4232,1.0325-10.0031,3.7834l-.1833.2043c-8.1284,9.629-.1109,17.3693,7.6412,24.8537ZM25.8789,22.9209c1.1086-3.5089,4.096-5.8554,7.8011-6.119.3294-.0228.6609-.0304.9843-.0205,3.5193.1075,6.679,2.1361,8.2317,5.3622,1.4338,2.9797,1.0792,5.9781-1.0488,8.9173-.2693.3711-6.3655,6.307-7.2136,6.5036h-.0025c-2.4617.5367-8.2028-7.4678-8.7413-9.2924-.5453-1.85-.5485-3.6481-.011-5.3512Z" style="fill:#0c3d49;"/><path d="M39.1043,47.0558c-1.9457,2.1631-3.7909,4.2171-5.6455,5.8995l2.0828,2.0599,4.9908-4.3746.4292.4149c.7721.7469,1.5667,1.4482,2.346,2.1344,3.6226,3.1847,7.0422,6.2035,6.1845,12.2083-.0586.4123-.2257.8706-.4028,1.3543-.3218.8761-.6859,1.8662-.3593,2.4839.1862.3504.6248.6162,1.3031.7873.2506.0645.5944.0805,1.0169-.3462,1.5921-1.6002,2.0887-7.0068,1.7201-8.4583l-.2345-.9037.9281.0991c3.3812.3524,6.3573-.4559,9.3726-2.546,3.0833-2.1333,4.9699-5.5221,5.1814-9.2918.2089-3.7773-1.2951-7.3819-4.1357-9.8627l-.2107-.1759c-9.9112-7.7818-17.3623.505-24.5671,8.5177ZM58.02,39.127c3.5461.9835,5.997,3.8858,6.3918,7.5792.0345.3284.0538.6594.0554.983.0173,3.5209-1.8979,6.7505-5.0669,8.4167-2.927,1.5386-5.9361,1.2905-8.9489-.7319-.3804-.2559-6.5287-6.1378-6.7553-6.9784v-.0025c-.6237-2.4411,7.1722-8.4624,8.9765-9.0653,1.8295-.6106,3.6263-.6776,5.3475-.2007Z" style="fill:#0c3d49;"/></g></g></svg>